<svg width="268" height="66" viewBox="0 0 268 66" fill="none" xmlns="http://www.w3.org/2000/svg">
<g clip-path="url(#clip0_6426_11710)">
<path d="M59.0492 33.1538C59.0492 33.1538 60.6691 33.0957 61.4386 30.9473C62.0686 29.1844 61.696 26.1518 60.0166 25.7437C58.6667 25.4181 57.3329 27.1249 57.2078 29.8899C57.0908 32.4519 58.4462 32.9579 58.4462 32.9579C57.3914 37.1712 54.624 42.6062 50.9575 46.0822C50.6686 46.3543 49.7272 45.3485 49.1773 45.7975C45.9428 49.0141 41.8956 51.2269 36.8144 51.9642C25.0571 53.6755 16.4129 45.6351 15.0971 36.0168C13.8839 27.1385 17.1553 20.9717 22.4022 17.4884C28.9225 13.159 36.305 14.2944 36.305 14.2944C36.305 14.2944 37.1924 14.3034 37.1825 13.4374C37.1735 12.4344 36.3383 12.4489 36.3383 12.4489C36.3383 12.4489 28.0171 11.3933 21.2619 15.8696C15.2591 19.8481 11.6322 27.4051 13.1757 36.2607C15.287 48.3947 25.3334 55.1736 36.0458 53.992C49.6606 52.4893 57.2411 41.6521 59.0492 33.1538Z" fill="#242633"/>
<path d="M22.6126 43.2855C22.878 43.2855 23.1869 43.4865 23.542 43.8883C24.6841 45.1345 26.0663 46.1329 27.6039 46.8225C29.2049 47.5586 30.7872 47.927 32.3507 47.9276C34.0773 47.9276 34.9403 47.3994 34.9397 46.3431C34.9397 45.6734 34.6377 44.9181 34.0338 44.0773C33.4299 43.2365 31.9832 41.5741 29.6938 39.0901C26.8161 35.951 24.8978 33.6234 23.9388 32.1074C22.6705 30.0983 22.0364 28.1866 22.0364 26.3722C22.0364 23.6362 23.2464 21.3978 25.6663 19.6572C28.0421 17.9457 30.9711 17.0903 34.4533 17.0909C36.8876 17.0909 39.1221 17.589 41.1567 18.585C41.8736 18.9394 42.5397 19.3897 43.137 19.9238C43.6901 20.431 43.967 20.855 43.9676 21.196C43.9637 21.2846 43.9408 21.3713 43.9005 21.4501C43.8601 21.529 43.8033 21.598 43.7339 21.6526C43.6078 21.7814 43.4378 21.8572 43.2583 21.8645C43.0083 21.8645 42.6396 21.6337 42.1523 21.1722C41.3551 20.4148 40.3076 19.7865 39.0098 19.2873C37.712 18.7881 36.4652 18.539 35.2694 18.5403C34.5302 18.5403 33.9291 18.7001 33.4658 19.0197C33.0026 19.3394 32.7719 19.754 32.7738 20.2636C32.7738 20.8724 33.0615 21.6164 33.6371 22.4955C34.2126 23.3747 35.1861 24.5427 36.5576 25.9996C40.8979 30.6548 43.5552 33.7927 44.5293 35.4134C45.5487 37.123 46.0581 38.7738 46.0575 40.3659C46.0551 41.7213 45.6787 43.0494 44.9704 44.2015C44.2267 45.4276 43.1919 46.4476 41.9593 47.1696C39.511 48.6429 36.5232 49.3793 32.9957 49.3787C29.7497 49.3787 26.8946 48.5306 24.4307 46.8344C22.7041 45.6441 21.8411 44.7145 21.8417 44.0454C21.8429 43.9465 21.8642 43.8488 21.9042 43.7585C21.9443 43.6682 22.0022 43.5871 22.0745 43.5202C22.1438 43.4465 22.2272 43.3877 22.3197 43.3473C22.4122 43.307 22.5118 43.286 22.6126 43.2855Z" fill="#242633"/>
<path fill-rule="evenodd" clip-rule="evenodd" d="M104.878 47.5551C107.627 45.2666 109.134 42.1824 109.399 38.3024L102.461 38.3097C102.062 40.3512 101.174 41.9166 99.7968 43.006C98.4193 44.0954 96.6596 44.6401 94.5175 44.6401C91.5451 44.6385 89.2523 43.6243 87.6391 41.5976C86.026 39.5709 85.2195 36.7026 85.2195 32.9927C85.2195 29.1601 86.0293 26.2459 87.649 24.2503C89.2687 22.2547 91.6357 21.2568 94.7499 21.2568C96.9479 21.2568 98.6929 21.7639 99.9847 22.7781C101.276 23.7923 102.071 25.2645 102.367 27.1947H109.362C109.108 23.3146 107.708 20.3114 105.16 18.1849C102.613 16.0584 99.1427 14.9951 94.7499 14.9951C89.347 14.9951 85.2046 16.5417 82.3228 19.635C79.4409 22.7282 78 27.1808 78 32.9927C77.9967 38.6835 79.4096 43.1058 82.2388 46.2596C85.0679 49.4133 89.0282 50.9902 94.1196 50.9902C98.5437 50.9886 102.13 49.8435 104.878 47.5551ZM125.659 49.9104C127.034 49.2298 128.197 48.1908 129.023 46.9046C129.033 47.4755 129.103 48.0438 129.233 48.6001C129.347 49.1007 129.528 49.5841 129.769 50.0379H136.84V48.9019C136.343 48.6574 135.953 48.2412 135.743 47.7315C135.526 47.2138 135.414 46.4286 135.414 45.376V31.0467C135.411 28.7419 134.465 26.9793 132.577 25.7591C130.689 24.5388 127.97 23.9286 124.421 23.9286C121.18 23.9237 118.641 24.6598 116.803 26.1369C114.966 27.614 114.048 29.6432 114.048 32.2244V32.6833H120.402V32.3128C120.379 31.8665 120.467 31.4215 120.658 31.0171C120.85 30.6126 121.139 30.2613 121.499 29.9941C122.233 29.4526 123.284 29.1819 124.653 29.1819C126.148 29.1868 127.214 29.4101 127.854 29.8517C128.493 30.2934 128.813 31.0238 128.813 32.0429C128.813 33.3286 127.372 34.1563 124.49 34.526C123.353 34.665 122.434 34.7885 121.732 34.8965C118.664 35.361 116.464 36.219 115.133 37.4704C113.801 38.7217 113.136 40.539 113.136 42.9224C113.142 45.484 113.809 47.4608 115.137 48.8528C116.466 50.2449 118.36 50.9409 120.822 50.9409C122.493 50.977 124.15 50.6241 125.659 49.9104ZM125.086 38.8567C126.4 38.5892 127.681 38.1778 128.904 37.6298L128.912 40.0123C128.91 41.7888 128.384 43.1914 127.335 44.2203C126.285 45.2492 124.841 45.7637 123.002 45.7637C121.974 45.7653 121.157 45.4913 120.55 44.9417C120.246 44.661 120.008 44.3182 119.85 43.937C119.693 43.5557 119.62 43.1451 119.638 42.7334C119.638 41.8354 119.876 41.1336 120.35 40.6233C120.825 40.1129 121.662 39.6876 122.861 39.3474C122.901 39.3302 123.645 39.1658 125.086 38.8567ZM141.356 50.038V24.8267H147.666V29.1402C148.553 27.4096 149.588 26.1378 150.773 25.3248C152.019 24.4902 153.496 24.0615 154.999 24.098H155.617C155.739 24.1019 155.86 24.1134 155.981 24.1323L156.005 30.9731H153.739C151.885 30.9731 150.491 31.4524 149.557 32.4109C148.623 33.3695 148.156 34.7918 148.156 36.6778V50.038H141.356ZM182.148 42.3826H175.373C175.011 43.2506 174.391 43.9884 173.596 44.4977C172.848 44.9541 171.891 45.1823 170.724 45.1823C169.07 45.1839 167.803 44.6817 166.925 43.6757C166.047 42.6697 165.561 41.1771 165.467 39.1978H182.437C182.469 38.9709 182.488 38.7423 182.494 38.5132C182.506 38.2752 182.506 37.9268 182.506 37.4361C182.506 33.1046 181.447 29.7684 179.33 27.4276C177.213 25.0868 174.206 23.9165 170.311 23.9165C166.635 23.9148 163.738 25.1048 161.621 27.4865C159.504 29.8682 158.445 33.1234 158.445 37.2521C158.439 41.4396 159.51 44.7602 161.658 47.2139C163.807 49.6675 166.719 50.8944 170.395 50.8944C173.386 50.8927 175.921 50.1386 178 48.6321C180.08 47.1256 181.462 45.0424 182.148 42.3826ZM175.464 34.7763H165.467C165.61 33.0898 166.105 31.7984 166.95 30.902C167.795 30.0056 168.959 29.5574 170.442 29.5574C172.032 29.5574 173.252 30.0023 174.1 30.8922C174.949 31.782 175.403 33.0768 175.464 34.7763Z" fill="#242633"/>
<path fill-rule="evenodd" clip-rule="evenodd" d="M191.014 38.8213H186.506C186.676 42.7242 187.925 45.7234 190.253 47.8188C192.581 49.9143 195.832 50.962 200.006 50.962C204.057 50.9554 207.27 49.9813 209.645 48.0397C212.019 46.098 213.206 43.4808 213.206 40.188C213.226 38.9189 212.979 37.6598 212.482 36.4903C212.013 35.401 211.293 34.4355 210.381 33.6711C209.165 32.6487 206.705 31.6975 202.999 30.8175L202.504 30.7022L200.567 30.2384C194.897 28.938 192.062 26.9669 192.062 24.3251C192.044 23.5445 192.222 22.7718 192.581 22.0772C192.941 21.3825 193.469 20.788 194.118 20.3477C195.489 19.3499 197.319 18.851 199.608 18.851C202.056 18.851 203.984 19.4612 205.391 20.6814C206.798 21.9017 207.58 23.6569 207.737 25.947L212.2 25.9249C212.171 22.5405 211.065 19.8775 208.884 17.9358C206.702 15.9942 203.711 15.0233 199.912 15.0233C196.19 15.0233 193.207 15.9475 190.965 17.796C188.722 19.6444 187.601 22.0907 187.601 25.1348C187.603 27.6228 188.354 29.544 189.855 30.8984C191.356 32.2529 194.444 33.4797 199.118 34.5789L199.178 34.593L199.178 34.593C199.359 34.6362 199.603 34.6946 199.912 34.763C205.679 36.119 208.562 38.1057 208.562 40.7229C208.591 41.6127 208.396 42.4957 207.993 43.2911C207.59 44.0866 206.993 44.7693 206.256 45.2769C204.724 46.3892 202.626 46.9453 199.961 46.9453C197.264 46.9437 195.11 46.2076 193.501 44.7371C191.891 43.2665 191.062 41.2946 191.014 38.8213ZM220.372 27.8976C218.276 30.2155 217.228 33.4543 217.228 37.6141C217.22 41.8049 218.268 45.056 220.372 47.3674C222.476 49.6787 225.427 50.8344 229.225 50.8344C233.008 50.8327 235.948 49.673 238.044 47.3551C240.14 45.0372 241.188 41.7902 241.188 37.6141C241.194 33.4396 240.146 30.1967 238.044 27.8854C235.941 25.574 232.989 24.4184 229.188 24.4184C225.407 24.42 222.468 25.5797 220.372 27.8976ZM223.523 44.6757C222.192 43.0465 221.526 40.6926 221.526 37.6141C221.528 34.5307 222.19 32.1776 223.513 30.5549C224.836 28.9323 226.744 28.1209 229.235 28.1209C231.697 28.1242 233.582 28.9421 234.89 30.5746C236.198 32.2071 236.852 34.5536 236.852 37.6141C236.852 40.6861 236.198 43.0399 234.89 44.6757C233.582 46.3115 231.697 47.1294 229.235 47.1294C226.759 47.1228 224.855 46.3049 223.523 44.6757ZM247.223 50.0713V28.5479H243.113V25.2306H247.223V21.5673C247.223 19.5111 247.695 17.9685 248.639 16.9397C249.578 15.914 250.992 15.3963 252.878 15.3963C253.252 15.4014 253.626 15.4252 253.997 15.4675C254.45 15.5141 255.112 15.5975 255.975 15.7128V19.4694C255.522 19.3933 255.144 19.3344 254.843 19.2952C254.597 19.2617 254.349 19.242 254.101 19.2363C253.113 19.2363 252.435 19.5086 252.045 20.0484C251.654 20.5882 251.462 21.6188 251.462 23.1351V25.2207H255.97V25.2305H259.675V18.2965H263.877V25.2305H268.385V28.5479H263.882V43.8096C263.882 44.9211 264.04 45.6621 264.361 46.035C264.682 46.408 265.268 46.592 266.123 46.592C266.37 46.592 266.672 46.592 267.023 46.5675C267.139 46.5594 267.266 46.5515 267.404 46.543C267.685 46.5257 268.014 46.5055 268.39 46.4742V50.0222C267.688 50.1473 267.062 50.2406 266.509 50.3019C266.017 50.3599 265.522 50.391 265.026 50.3952C263.049 50.3952 261.662 50.0157 260.866 49.2567C260.07 48.4977 259.673 47.1531 259.675 45.2229V28.538L255.97 28.5381H251.476V50.0713H247.223Z" fill="#242633"/>
</g>
<defs>
<clipPath id="clip0_6426_11710">
<rect width="268" height="66" fill="white" transform="translate(0 -0.00488281)"/>
</clipPath>
</defs>
</svg>
