<svg width="190" height="156" viewBox="0 0 190 156" fill="none" xmlns="http://www.w3.org/2000/svg">
<g clip-path="url(#clip0_6426_11665)">
<path d="M142.362 60.2836C142.362 60.2836 145.307 60.178 146.706 56.2719C147.852 53.0665 147.174 47.5527 144.121 46.8107C141.667 46.2187 139.242 49.3219 139.014 54.3493C138.801 59.0073 141.266 59.9274 141.266 59.9274C139.348 67.588 134.316 77.4697 127.65 83.7898C127.125 84.2845 125.413 82.4559 124.413 83.2721C118.532 89.1206 111.174 93.1438 101.935 94.4844C80.5583 97.5958 64.8415 82.9769 62.4492 65.489C60.2434 49.3466 66.1914 38.1343 75.7312 31.801C87.5863 23.9294 101.009 25.9937 101.009 25.9937C101.009 25.9937 102.622 26.0102 102.604 24.4356C102.588 22.6119 101.07 22.6383 101.07 22.6383C101.07 22.6383 85.9401 20.719 73.6579 28.8578C62.7437 36.0914 56.1494 49.8314 58.9556 65.9326C62.7944 87.9944 81.0606 100.32 100.538 98.1712C125.292 95.439 139.075 75.7351 142.362 60.2836Z" fill="#242633"/>
<path d="M76.1139 78.705C76.5965 78.705 77.1581 79.0703 77.8038 79.8009C79.8804 82.0667 82.3933 83.882 85.1891 85.1359C88.1 86.4742 90.9768 87.1439 93.8196 87.145C96.9589 87.145 98.528 86.1848 98.5269 84.2642C98.5269 83.0465 97.9779 81.6733 96.8798 80.1446C95.7818 78.6159 93.1515 75.5933 88.9889 71.0769C83.7567 65.3694 80.2689 61.1375 78.5252 58.3812C76.2193 54.7282 75.0664 51.2523 75.0664 47.9536C75.0664 42.9789 77.2663 38.9091 81.6661 35.7443C85.9857 32.6326 91.3112 31.0774 97.6424 31.0785C102.069 31.0785 106.131 31.984 109.831 33.7949C111.134 34.4393 112.345 35.2581 113.431 36.2292C114.437 37.1513 114.94 37.9223 114.941 38.5422C114.934 38.7033 114.893 38.8609 114.819 39.0043C114.746 39.1476 114.643 39.2732 114.516 39.3724C114.287 39.6066 113.978 39.7443 113.652 39.7576C113.197 39.7576 112.527 39.3381 111.641 38.499C110.191 37.1219 108.287 35.9795 105.927 35.0718C103.567 34.1641 101.301 33.7114 99.1264 33.7136C97.7824 33.7136 96.6893 34.0042 95.8471 34.5853C95.005 35.1665 94.5855 35.9203 94.5888 36.8468C94.5888 37.9538 95.112 39.3065 96.1584 40.905C97.2049 42.5034 98.9749 44.6271 101.469 47.2761C109.36 55.7399 114.191 61.4452 115.962 64.392C117.816 67.5003 118.742 70.5019 118.741 73.3966C118.737 75.861 118.052 78.2757 116.765 80.3704C115.412 82.5996 113.531 84.4542 111.29 85.7669C106.838 88.4457 101.406 89.7846 94.9923 89.7835C89.0904 89.7835 83.8995 88.2415 79.4195 85.1575C76.2803 82.9934 74.7112 81.3031 74.7123 80.0865C74.7145 79.9067 74.7532 79.7292 74.826 79.565C74.8988 79.4008 75.0042 79.2534 75.1356 79.1317C75.2616 78.9977 75.4132 78.8907 75.5814 78.8174C75.7495 78.744 75.9307 78.7058 76.1139 78.705Z" fill="#242633"/>
<path fill-rule="evenodd" clip-rule="evenodd" d="M26.6836 152.555C29.4319 150.267 30.9388 147.182 31.2041 143.302L24.2663 143.31C23.8676 145.351 22.9795 146.917 21.602 148.006C20.2245 149.095 18.4647 149.64 16.3227 149.64C13.3502 149.639 11.0574 148.624 9.44432 146.598C7.83121 144.571 7.02465 141.703 7.02465 137.993C7.02465 134.16 7.8345 131.246 9.45421 129.25C11.0739 127.255 13.4409 126.257 16.555 126.257C18.7531 126.257 20.498 126.764 21.7898 127.778C23.0816 128.792 23.8758 130.264 24.1724 132.195H31.167C30.9132 128.315 29.5127 125.311 26.9653 123.185C24.4179 121.058 20.9478 119.995 16.555 119.995C11.1522 119.995 7.00982 121.542 4.12796 124.635C1.24611 127.728 -0.194818 132.181 -0.194818 137.993C-0.198114 143.684 1.2148 148.106 4.04393 151.26C6.87306 154.413 10.8333 155.99 15.9248 155.99C20.3489 155.989 23.9352 154.844 26.6836 152.555ZM47.4642 154.91C48.8392 154.23 50.002 153.191 50.828 151.905C50.838 152.476 50.9084 153.044 51.0381 153.6C51.1525 154.101 51.3328 154.584 51.5744 155.038H58.6456V153.902C58.1485 153.657 57.7583 153.241 57.5482 152.732C57.3307 152.214 57.2195 151.429 57.2195 150.376V136.047C57.2162 133.742 56.2704 131.979 54.3821 130.759C52.4938 129.539 49.7751 128.929 46.2259 128.929C42.9849 128.924 40.4457 129.66 38.6085 131.137C36.7713 132.614 35.8527 134.643 35.8527 137.224V137.683H42.2071V137.313C42.184 136.867 42.2721 136.421 42.4635 136.017C42.6549 135.613 42.9437 135.261 43.3045 134.994C44.0377 134.453 45.089 134.182 46.4582 134.182C47.9527 134.187 49.0196 134.41 49.6589 134.852C50.2982 135.293 50.6179 136.024 50.6179 137.043C50.6179 138.329 49.177 139.156 46.2951 139.526C45.1582 139.665 44.2388 139.788 43.5368 139.896C40.4688 140.361 38.2691 141.219 36.9377 142.47C35.6064 143.722 34.9407 145.539 34.9407 147.922C34.9473 150.484 35.6146 152.461 36.9427 153.853C38.2707 155.245 40.1656 155.941 42.6273 155.941C44.2985 155.977 45.955 155.624 47.4642 154.91ZM46.8908 143.857C48.2054 143.589 49.4861 143.178 50.7093 142.63L50.7168 145.012C50.7151 146.789 50.1895 148.191 49.1399 149.22C48.0903 150.249 46.6461 150.764 44.8072 150.764C43.779 150.765 42.9618 150.491 42.3554 149.942C42.0516 149.661 41.8127 149.318 41.6552 148.937C41.4978 148.556 41.4255 148.145 41.4434 147.733C41.4434 146.835 41.6807 146.134 42.1552 145.623C42.6298 145.113 43.4668 144.688 44.6663 144.347C44.7059 144.33 45.4498 144.166 46.8908 143.857ZM63.1615 155.038V129.827H69.4714V134.14C70.3579 132.41 71.3935 131.138 72.5782 130.325C73.8246 129.49 75.3017 129.061 76.8046 129.098H77.4225C77.5442 129.102 77.6655 129.113 77.7858 129.132L77.8105 135.973H75.5441C73.6904 135.973 72.2964 136.452 71.3622 137.411C70.4279 138.369 69.9608 139.792 69.9608 141.678V155.038H63.1615ZM103.953 147.383H97.1782C96.8162 148.251 96.1963 148.988 95.4011 149.498C94.653 149.954 93.6957 150.182 92.5291 150.182C90.8748 150.184 89.6085 149.682 88.7303 148.676C87.8521 147.67 87.366 146.177 87.2721 144.198H104.242C104.274 143.971 104.293 143.742 104.299 143.513C104.311 143.275 104.311 142.927 104.311 142.436C104.311 138.105 103.252 134.768 101.135 132.428C99.0178 130.087 96.0116 128.916 92.1164 128.916C88.4403 128.915 85.5436 130.105 83.4263 132.487C81.309 134.868 80.2503 138.123 80.2503 142.252C80.2438 146.44 81.3148 149.76 83.4634 152.214C85.612 154.668 88.5244 155.894 92.2004 155.894C95.191 155.893 97.726 155.139 99.8054 153.632C101.885 152.126 103.267 150.042 103.953 147.383ZM97.2696 139.776H87.2721C87.4154 138.09 87.9098 136.798 88.755 135.902C89.6003 135.006 90.7644 134.557 92.2474 134.557C93.8374 134.557 95.0567 135.002 95.9053 135.892C96.7539 136.782 97.2086 138.077 97.2696 139.776Z" fill="#242633"/>
<path fill-rule="evenodd" clip-rule="evenodd" d="M112.819 143.821H108.311C108.481 147.724 109.73 150.723 112.058 152.819C114.386 154.914 117.637 155.962 121.811 155.962C125.863 155.955 129.076 154.981 131.45 153.04C133.824 151.098 135.012 148.481 135.012 145.188C135.031 143.919 134.784 142.66 134.287 141.49C133.818 140.401 133.098 139.436 132.187 138.671C130.971 137.649 128.51 136.698 124.804 135.818L124.31 135.702L122.372 135.238C116.702 133.938 113.867 131.967 113.867 129.325C113.849 128.545 114.027 127.772 114.387 127.077C114.746 126.383 115.274 125.788 115.924 125.348C117.295 124.35 119.124 123.851 121.413 123.851C123.861 123.851 125.789 124.461 127.196 125.681C128.604 126.902 129.385 128.657 129.542 130.947L134.006 130.925C133.976 127.541 132.87 124.878 130.689 122.936C128.507 120.994 125.517 120.023 121.717 120.023C117.995 120.023 115.012 120.948 112.77 122.796C110.527 124.644 109.406 127.091 109.406 130.135C109.408 132.623 110.159 134.544 111.66 135.898C113.161 137.253 116.249 138.48 120.924 139.579L120.983 139.593L120.983 139.593C121.164 139.636 121.408 139.695 121.717 139.763C127.484 141.119 130.367 143.106 130.367 145.723C130.397 146.613 130.201 147.496 129.798 148.291C129.395 149.087 128.798 149.769 128.061 150.277C126.529 151.389 124.431 151.945 121.766 151.945C119.069 151.944 116.916 151.208 115.306 149.737C113.696 148.267 112.867 146.295 112.819 143.821ZM142.177 132.898C140.081 135.216 139.033 138.454 139.033 142.614C139.025 146.805 140.073 150.056 142.177 152.367C144.281 154.679 147.232 155.834 151.03 155.834C154.814 155.833 157.753 154.673 159.849 152.355C161.945 150.037 162.993 146.79 162.993 142.614C162.999 138.44 161.951 135.197 159.849 132.885C157.746 130.574 154.795 129.418 150.993 129.418C147.212 129.42 144.273 130.58 142.177 132.898ZM145.328 149.676C143.997 148.047 143.331 145.693 143.331 142.614C143.333 139.531 143.995 137.178 145.319 135.555C146.642 133.932 148.549 133.121 151.04 133.121C153.502 133.124 155.387 133.942 156.695 135.575C158.004 137.207 158.658 139.554 158.658 142.614C158.658 145.686 158.004 148.04 156.695 149.676C155.387 151.312 153.502 152.129 151.04 152.129C148.564 152.123 146.66 151.305 145.328 149.676ZM169.028 155.071V133.548H164.918V130.231H169.028V126.567C169.028 124.511 169.5 122.969 170.444 121.94C171.383 120.914 172.797 120.396 174.683 120.396C175.057 120.401 175.431 120.425 175.803 120.467C176.255 120.514 176.917 120.598 177.78 120.713V124.469C177.328 124.393 176.949 124.334 176.648 124.295C176.402 124.262 176.154 124.242 175.906 124.236C174.918 124.236 174.241 124.509 173.85 125.048C173.46 125.588 173.267 126.619 173.267 128.135V130.221H177.775V130.231H181.48V123.297H185.682V130.231H190.19V133.548H185.687V148.81C185.687 149.921 185.845 150.662 186.166 151.035C186.488 151.408 187.073 151.592 187.928 151.592C188.176 151.592 188.477 151.592 188.828 151.567C188.944 151.559 189.071 151.552 189.209 151.543C189.491 151.526 189.819 151.506 190.195 151.474V155.022C189.493 155.147 188.868 155.241 188.314 155.302C187.822 155.36 187.327 155.391 186.831 155.395C184.854 155.395 183.467 155.016 182.671 154.257C181.876 153.498 181.478 152.153 181.48 150.223V133.538L177.775 133.538H173.282V155.071H169.028Z" fill="#242633"/>
</g>
<defs>
<clipPath id="clip0_6426_11665">
<rect width="190" height="156" fill="white" transform="translate(0 -0.00488281)"/>
</clipPath>
</defs>
</svg>
