<svg width="26" height="30" viewBox="0 0 26 30" fill="none" xmlns="http://www.w3.org/2000/svg">
<path d="M3 6C4.65685 6 6 4.65685 6 3C6 1.34315 4.65685 0 3 0C1.34315 0 0 1.34315 0 3C0 4.65685 1.34315 6 3 6Z" fill="#343330"/>
<path d="M3 14C4.65685 14 6 12.6569 6 11C6 9.34315 4.65685 8 3 8C1.34315 8 0 9.34315 0 11C0 12.6569 1.34315 14 3 14Z" fill="#343330"/>
<path d="M3 22C4.65685 22 6 20.6569 6 19C6 17.3431 4.65685 16 3 16C1.34315 16 0 17.3431 0 19C0 20.6569 1.34315 22 3 22Z" fill="#343330"/>
<path d="M13 6C14.6569 6 16 4.65685 16 3C16 1.34315 14.6569 0 13 0C11.3431 0 10 1.34315 10 3C10 4.65685 11.3431 6 13 6Z" fill="#343330"/>
<path d="M13 14C14.6569 14 16 12.6569 16 11C16 9.34315 14.6569 8 13 8C11.3431 8 10 9.34315 10 11C10 12.6569 11.3431 14 13 14Z" fill="#343330"/>
<path d="M13 22C14.6569 22 16 20.6569 16 19C16 17.3431 14.6569 16 13 16C11.3431 16 10 17.3431 10 19C10 20.6569 11.3431 22 13 22Z" fill="#343330"/>
<path d="M13 30C14.6569 30 16 28.6569 16 27C16 25.3431 14.6569 24 13 24C11.3431 24 10 25.3431 10 27C10 28.6569 11.3431 30 13 30Z" fill="#343330"/>
<path d="M23 6C24.6569 6 26 4.65685 26 3C26 1.34315 24.6569 0 23 0C21.3431 0 20 1.34315 20 3C20 4.65685 21.3431 6 23 6Z" fill="#343330"/>
<path d="M23 14C24.6569 14 26 12.6569 26 11C26 9.34315 24.6569 8 23 8C21.3431 8 20 9.34315 20 11C20 12.6569 21.3431 14 23 14Z" fill="#343330"/>
<path d="M23 22C24.6569 22 26 20.6569 26 19C26 17.3431 24.6569 16 23 16C21.3431 16 20 17.3431 20 19C20 20.6569 21.3431 22 23 22Z" fill="#343330"/>
</svg>
